<?xml version="1.0" encoding="UTF-8"?>
<svg version="1.1" xmlns="http://www.w3.org/2000/svg" width="660" height="378">
<path d="M0 0 C2.93002472 1.58835016 4.37553008 3.85474841 6.33984375 6.53125 C7.21837943 7.71251527 8.09730628 8.8934897 8.9765625 10.07421875 C9.44497559 10.71020996 9.91338867 11.34620117 10.39599609 12.00146484 C13.10335829 15.64960249 15.88429552 19.24158808 18.65234375 22.84375 C19.71038603 24.22468564 20.76769729 25.60618172 21.82421875 26.98828125 C22.2737793 27.57585205 22.72333984 28.16342285 23.18652344 28.76879883 C24.90234375 31.03125 24.90234375 31.03125 25.84532738 32.97026348 C27.29783685 35.54708704 28.57849057 37.17928758 30.90234375 39.03125 C35.97339731 40.22896992 41.00594562 40.04351828 46.17919922 39.93945312 C47.74656559 39.93719516 49.31394042 39.9384659 50.88130188 39.94299316 C55.1274237 39.94528566 59.37173221 39.89830422 63.61743307 39.8424015 C68.05761578 39.79233996 72.49784157 39.78768773 76.93826294 39.77819824 C85.34267249 39.75334787 93.74624806 39.6877194 102.15029061 39.60740232 C111.71965803 39.51793649 121.28906561 39.47398559 130.85874724 39.43383884 C150.5404113 39.35025151 170.22132496 39.20956716 189.90234375 39.03125 C189.90234375 43.38117855 189.26320118 44.61583562 187.11328125 48.265625 C186.50871094 49.30203125 185.90414063 50.3384375 185.28125 51.40625 C184.61996094 52.52 183.95867187 53.63375 183.27734375 54.78125 C182.59031679 55.95263916 181.90413067 57.12452184 181.21875 58.296875 C179.80758417 60.70777079 178.39173672 63.11581512 176.97167969 65.52148438 C174.49988568 69.70998501 172.05072548 73.91157778 169.60229492 78.11376953 C168.46028842 80.07369739 167.31720565 82.0329985 166.1730957 83.99169922 C159.36751113 95.64343944 152.63699651 107.33842166 145.90234375 119.03125 C138.49025378 131.90025732 131.07217932 144.7654161 123.58984375 157.59375 C123.06382568 158.49561035 122.53780762 159.3974707 121.99584961 160.32666016 C120.94804227 162.120822 119.87054719 163.89799698 118.76315308 165.65600586 C117.30231418 168.30576038 116.39379198 170.43837031 115.47355652 173.2618103 C113.55432579 178.39636179 111.36969208 182.69423413 106.90234375 186.03125 C97.76321035 189.13131978 87.42487884 188.32701766 77.87310457 188.15880513 C73.9823639 188.10837427 70.09272832 188.15488879 66.20199585 188.1905365 C58.82314802 188.24361199 51.4473188 188.21066827 44.06866205 188.14633888 C35.74675524 188.07789754 27.4260607 188.10479446 19.10404897 188.14026654 C6.77821727 188.19108394 -5.54664109 188.19705656 -17.87239766 188.12865245 C-19.91662858 188.11761551 -21.96086087 188.10831267 -24.00510216 188.09942722 C-29.77233215 188.07187596 -35.53763484 188.03029412 -41.30401611 187.92575073 C-42.22532129 187.91347411 -43.14662647 187.90119749 -44.09584999 187.88854885 C-45.72824904 187.86618125 -47.36056613 187.83355495 -48.99245262 187.78693485 C-55.54954596 187.71432069 -60.77271668 189.58129801 -66.5078125 192.66796875 C-72.25354078 195.66353827 -78.15077746 198.32139254 -84.03515625 201.03125 C-85.82552684 201.86538595 -87.61588944 202.69953959 -89.40576172 203.53474426 C-99.98608395 208.46881673 -110.62015676 213.28428607 -121.25756836 218.09375 C-121.93590225 218.40093964 -122.61423615 218.70812927 -123.31312561 219.02462769 C-125.15216605 219.85737969 -126.99183189 220.68875016 -128.83154297 221.52001953 C-131.03385332 222.53902843 -133.20353183 223.63128712 -135.33642578 224.78857422 C-138.09765625 226.03125 -138.09765625 226.03125 -141.09765625 225.03125 C-142.65649414 223.28808594 -142.65649414 223.28808594 -144.3203125 221.015625 C-144.93696777 220.18216553 -145.55362305 219.34870605 -146.18896484 218.48999023 C-146.83945801 217.59610596 -147.48995117 216.70222168 -148.16015625 215.78125 C-149.5070357 213.95385429 -150.85469392 212.12703232 -152.203125 210.30078125 C-152.8636084 209.40311035 -153.5240918 208.50543945 -154.20458984 207.58056641 C-157.49953388 203.14339777 -160.91929529 198.80544072 -164.33984375 194.46484375 C-166.09765625 192.03125 -166.09765625 192.03125 -167.09765625 189.03125 C-201.29108817 188.95790683 -235.47691407 189.14112689 -269.66845703 189.49481201 C-275.73207813 189.55697683 -281.79572779 189.61622784 -287.859375 189.67578125 C-299.60549707 189.7915453 -311.35158623 189.91032785 -323.09765625 190.03125 C-324.09765625 187.03125 -324.09765625 187.03125 -323.3034668 185.02709961 C-322.8681665 184.25374268 -322.43286621 183.48038574 -321.984375 182.68359375 C-321.48736084 181.78560059 -320.99034668 180.88760742 -320.47827148 179.96240234 C-319.91954346 178.97449707 -319.36081543 177.9865918 -318.78515625 176.96875 C-317.58010207 174.79403663 -316.37709582 172.61818762 -315.17578125 170.44140625 C-314.85282578 169.85846802 -314.5298703 169.27552979 -314.1971283 168.67492676 C-310.43607583 161.87121423 -306.81976336 154.99167688 -303.19766235 148.11331177 C-297.44972263 137.200631 -291.6530909 126.3199894 -285.71240234 115.51074219 C-281.10752317 107.10538444 -276.63470666 98.6314221 -272.16015625 90.15625 C-265.32900395 77.21878862 -258.46116221 64.30312984 -251.43115234 51.47216797 C-250.51409687 49.79352998 -249.60605335 48.1099472 -248.70556641 46.42236328 C-248.26390137 45.60364746 -247.82223633 44.78493164 -247.3671875 43.94140625 C-246.97764893 43.21187744 -246.58811035 42.48234863 -246.18676758 41.73071289 C-245.09765625 40.03125 -245.09765625 40.03125 -243.09765625 39.03125 C-241.0426164 38.95416292 -238.984944 38.94459837 -236.92855835 38.96482849 C-235.61108109 38.97501511 -234.29360382 38.98520172 -232.936203 38.99569702 C-231.46707124 39.01199733 -229.99793978 39.02832517 -228.52880859 39.04467773 C-226.98799594 39.05805165 -225.44717838 39.07087101 -223.90635681 39.08317566 C-220.58057954 39.11011502 -217.25483388 39.13941865 -213.92908859 39.17004204 C-208.65701044 39.21696674 -203.38491115 39.24879301 -198.11270142 39.27662659 C-197.22234833 39.28136582 -196.33199525 39.28610506 -195.41466177 39.29098791 C-192.67097311 39.30545358 -189.92728348 39.31972381 -187.18359375 39.33398438 C-175.831098 39.39336315 -164.4790229 39.46343705 -153.12695312 39.57983398 C-144.85064405 39.66458704 -136.57469001 39.72037292 -128.29797137 39.74328762 C-123.92290896 39.75649848 -119.54901476 39.78385119 -115.17435837 39.84652519 C-111.04540889 39.9053905 -106.91796656 39.92549877 -102.7886219 39.91781807 C-101.28588561 39.92156803 -99.78310261 39.9387176 -98.28071785 39.97143555 C-87.10201767 40.20334125 -79.53178984 37.56714238 -69.94426274 32.05746949 C-66.87600862 30.35234055 -63.70288781 28.90374891 -60.51953125 27.42578125 C-59.25685927 26.83525897 -57.99431072 26.24447264 -56.73193359 25.65332031 C-55.43719843 25.0500788 -54.14243879 24.44688982 -52.84765625 23.84375 C-51.4707912 23.20035512 -50.09400233 22.55679718 -48.71728516 21.91308594 C-41.82045127 18.69036447 -34.91735009 15.48116443 -28.01171875 12.27734375 C-27.37016846 11.97967606 -26.72861816 11.68200836 -26.06762695 11.37532043 C-23.03128474 9.96687116 -19.99420674 8.56006177 -16.95605469 7.15551758 C-15.87614258 6.65560303 -14.79623047 6.15568848 -13.68359375 5.640625 C-12.74563965 5.20717773 -11.80768555 4.77373047 -10.84130859 4.32714844 C-8.83554296 3.37977311 -6.85076293 2.38760672 -4.87963867 1.37011719 C-2.09765625 0.03125 -2.09765625 0.03125 0 0 Z " fill="#F7F6F6" transform="translate(391.09765625,42.96875)"/>
<path d="M0 0 C2.12109375 2.34375 2.12109375 2.34375 4.4375 5.5 C5.31469955 6.6799884 6.19232637 7.85965925 7.0703125 9.0390625 C7.77269043 9.99280762 7.77269043 9.99280762 8.48925781 10.96582031 C11.21655516 14.6380636 14.02218014 18.25056742 16.8125 21.875 C28 36.42360176 28 36.42360176 28 39 C27.10804932 38.98316162 26.21609863 38.96632324 25.29711914 38.94897461 C21.9463225 38.9074403 18.60045498 38.90685185 15.24975586 38.93286133 C13.80764303 38.93591972 12.36539915 38.92325721 10.92358398 38.89379883 C2.18205339 38.61605187 2.18205339 38.61605187 -5.73095703 41.82861328 C-7.98823371 44.11304517 -9.9847389 46.50183334 -12 49 C-13.24303166 50.13537381 -14.51380325 51.2412446 -15.8125 52.3125 C-21.5175196 57.21542774 -26.71900679 62.65054947 -32 68 C-37.81407415 73.88944178 -43.59036757 79.73723514 -49.890625 85.11328125 C-54.80673828 89.51047146 -59.36744729 94.30739568 -64 99 C-75.57066508 110.72065519 -75.57066508 110.72065519 -79.9375 114.4375 C-85.97062464 119.58560016 -91.4293758 125.36324629 -97 131 C-109.75601796 143.9074461 -109.75601796 143.9074461 -115.97070312 149.19775391 C-120.59938974 153.3085533 -124.89319636 157.7922625 -129.25 162.1875 C-130.23934585 163.18187697 -131.22892787 164.17601901 -132.21875 165.16992188 C-134.03173724 166.99099364 -135.84307527 168.81364817 -137.65332031 170.63745117 C-138.42772461 171.41709229 -139.20212891 172.1967334 -140 173 C-140.57596924 173.69936172 -141.15193848 174.39872345 -141.74536133 175.11927795 C-144.75654213 177.63107472 -146.53197415 177.48424826 -150.42089844 177.45410156 C-152.37246857 177.45364838 -152.37246857 177.45364838 -154.36346436 177.45318604 C-155.77877415 177.43276086 -157.19407768 177.4118969 -158.609375 177.390625 C-160.06096619 177.38316145 -161.51256748 177.37746905 -162.96417236 177.37347412 C-166.77846258 177.35822643 -170.59214021 177.31895309 -174.40618896 177.2746582 C-178.30065627 177.23368623 -182.19522289 177.21545906 -186.08984375 177.1953125 C-193.72684129 177.15245713 -201.3633347 177.08421739 -209 177 C-209.08253273 175.63676353 -209.08253273 175.63676353 -209.16673279 174.24598694 C-209.37511007 170.81832575 -209.58510204 167.3907709 -209.79612732 163.96327209 C-209.88649919 162.4902678 -209.97625922 161.01722581 -210.06535339 159.54414368 C-210.59301744 150.82740058 -211.19669186 142.12847668 -212.0625 133.4375 C-213.14446834 122.30116118 -213.58586285 111.18170302 -214 100 C-198.655 99.505 -198.655 99.505 -183 99 C-179.04 91.41 -175.08 83.82 -171 76 C-182.22 76 -193.44 76 -205 76 C-205.66 77.65 -206.32 79.3 -207 81 C-208.09243852 83.21159807 -209.20970138 85.41100967 -210.34375 87.6015625 C-210.66875992 88.23075089 -210.99376984 88.85993927 -211.32862854 89.50819397 C-212.38337108 91.54837202 -213.4415338 93.58675167 -214.5 95.625 C-215.23504921 97.04397254 -215.96999321 98.46299958 -216.70483398 99.88208008 C-222.091918 110.27831312 -227.49934124 120.66332126 -233 131 C-233.5657373 132.0631543 -234.13147461 133.12630859 -234.71435547 134.22167969 C-236.31837706 137.23261321 -237.92420539 140.24255886 -239.53219604 143.25137329 C-240.45450656 144.97736459 -241.3758383 146.7038788 -242.29711914 148.43041992 C-247.42987229 158.01448854 -252.71798328 167.49236991 -258 177 C-273.84 177 -289.68 177 -306 177 C-304.61359478 172.84078434 -303.30709326 169.35804408 -301.3828125 165.5 C-300.86477051 164.4598877 -300.34672852 163.41977539 -299.81298828 162.34814453 C-299.25595215 161.24325684 -298.69891602 160.13836914 -298.125 159 C-297.54347168 157.84226074 -296.96194336 156.68452148 -296.36279297 155.49169922 C-291.80501054 146.4737923 -287.03772407 137.58787555 -282.15625 128.7421875 C-277.93734027 121.09407512 -273.83291524 113.38455723 -269.71850586 105.67993164 C-266.59516824 99.83346415 -263.45906836 93.99504028 -260.28515625 88.17578125 C-253.38300446 75.50065078 -246.81779051 62.75362975 -240.80932617 49.62866211 C-240 48 -240 48 -239 47 C-236.04181822 46.83670293 -233.10550048 46.73917149 -230.14453125 46.68359375 C-229.20398895 46.66258606 -228.26344666 46.64157837 -227.29440308 46.61993408 C-224.13386413 46.55233547 -220.97325988 46.4937894 -217.8125 46.4375 C-216.18388535 46.40772568 -216.18388535 46.40772568 -214.52236938 46.37734985 C-206.01522317 46.22600687 -197.50779355 46.10812422 -189 46 C-187.64042129 45.98203493 -186.28084284 45.96404964 -184.92126465 45.94604492 C-176.54569509 45.83720953 -168.17043294 45.75953869 -159.79428101 45.71389771 C-157.07278463 45.69843583 -154.35162014 45.67369966 -151.63027954 45.64083862 C-147.77808449 45.59873053 -143.92661585 45.58328538 -140.07421875 45.57421875 C-138.94370087 45.55675598 -137.81318298 45.53929321 -136.64840698 45.52130127 C-128.6882912 45.54251776 -117.9284214 46.0715786 -112 52 C-111.39397982 57.03799909 -112.86565836 60.53001668 -115.1875 64.875 C-115.70957031 65.88518188 -115.70957031 65.88518188 -116.2421875 66.91577148 C-117.47716302 69.28693503 -118.73562419 71.64438242 -120 74 C-120.50354004 74.9389209 -121.00708008 75.8778418 -121.52587891 76.84521484 C-124.2906218 81.98688601 -127.07390844 87.1181003 -129.87109375 92.2421875 C-131.76420386 95.71355482 -133.6386218 99.1923755 -135.47265625 102.6953125 C-135.83230469 103.38101318 -136.19195312 104.06671387 -136.5625 104.77319336 C-137.4844662 106.53811938 -138.40070327 108.30603505 -139.31640625 110.07421875 C-142.01607569 114.76575566 -144.34231884 118.16600909 -149.4375 120.25 C-150.17871094 120.56453125 -150.91992188 120.8790625 -151.68359375 121.203125 C-158.40976196 123.5170176 -164.94905678 123.07122165 -172 123 C-171.01 130.92 -170.02 138.84 -169 147 C-166.4425 144.586875 -163.885 142.17375 -161.25 139.6875 C-155.17316759 133.96236833 -149.06624906 128.27550941 -142.8984375 122.6484375 C-139.71194846 119.73679387 -136.54290947 116.8068149 -133.375 113.875 C-129.64997929 110.42954696 -125.90789608 107.00705941 -122.125 103.625 C-111.45868839 94.0306172 -101.09611568 84.1837198 -90.98046875 74.0078125 C-90.50201508 73.52672153 -90.0235614 73.04563057 -89.53060913 72.54996109 C-85.0562541 68.04923984 -80.58862822 63.54186816 -76.12573242 59.02978516 C-73.6552492 56.53261902 -71.17999068 54.04027067 -68.70168495 51.55086899 C-67.3141309 50.15411496 -65.93218746 48.75179449 -64.55033875 47.34939575 C-63.7179921 46.51367035 -62.88564545 45.67794495 -62.02807617 44.81689453 C-61.29610519 44.07746613 -60.56413422 43.33803772 -59.8099823 42.57620239 C-58 41 -58 41 -56 41 C-56 40.34 -56 39.68 -56 39 C-65.57 39 -75.14 39 -85 39 C-81.39426867 35.39426867 -79.42630531 34.00952325 -74.9609375 31.96875 C-74.07662804 31.56006683 -74.07662804 31.56006683 -73.17445374 31.14312744 C-71.24499873 30.25377357 -69.31012131 29.37694696 -67.375 28.5 C-66.02182521 27.87878195 -64.66904663 27.25670019 -63.31665039 26.63378906 C-60.55292405 25.36244669 -57.78705005 24.09597921 -55.01904297 22.83398438 C-50.22668925 20.6488371 -45.44327876 18.44444891 -40.66113281 16.23706055 C-38.52492455 15.25162852 -36.38756582 14.26868638 -34.24902344 13.28833008 C-29.08711187 10.91676046 -23.95290418 8.503578 -18.85546875 5.99609375 C-17.88746338 5.52268555 -16.91945801 5.04927734 -15.92211914 4.56152344 C-14.10759249 3.67017701 -12.29782958 2.76904096 -10.49389648 1.85644531 C-9.69411377 1.46424805 -8.89433105 1.07205078 -8.0703125 0.66796875 C-7.37695801 0.32016357 -6.68360352 -0.0276416 -5.96923828 -0.38598633 C-3.5426859 -1.14259174 -2.34496914 -0.93731705 0 0 Z " fill="#EA1E25" transform="translate(393,44)"/>
<path d="M0 0 C1.55752079 -0.00101602 3.11504139 -0.00235569 4.67256165 -0.0039978 C8.81660243 -0.00668282 12.96060546 -0.00226151 17.10464096 0.00424194 C19.6629116 0.00781089 22.22117664 0.00943009 24.77944946 0.01049805 C50.29292096 0.02375768 75.78857498 0.25453245 101.2890625 1.1328125 C99.92020291 4.8577343 98.21643972 8.03165676 96.06640625 11.36328125 C95.44572266 12.33072266 94.82503906 13.29816406 94.18554688 14.29492188 C93.53908203 15.29330078 92.89261719 16.29167969 92.2265625 17.3203125 C90.94325611 19.31331658 89.6606671 21.30678284 88.37890625 23.30078125 C87.52607056 24.61985474 87.52607056 24.61985474 86.65600586 25.96557617 C85.28122967 28.06606116 85.28122967 28.06606116 84.2890625 30.1328125 C56.2390625 30.4628125 28.1890625 30.7928125 -0.7109375 31.1328125 C-4.0109375 38.3928125 -7.3109375 45.6528125 -10.7109375 53.1328125 C-7.9268042 53.1625415 -7.9268042 53.1625415 -5.08642578 53.19287109 C1.08032109 53.26093629 7.24691219 53.33773223 13.41348076 53.42033958 C17.14833821 53.47005798 20.88317068 53.51638777 24.61816406 53.5546875 C28.22985567 53.59185232 31.8413248 53.63829164 35.45282364 53.69087601 C36.82331522 53.70925581 38.19385419 53.72442272 39.56441879 53.73615646 C55.80039453 53.87999329 55.80039453 53.87999329 62.2890625 56.1328125 C64.5249112 59.03113488 64.32072492 60.65369432 64.08203125 64.265625 C63.10974604 69.00731149 61.24129012 72.61333328 58.9140625 76.8203125 C58.47288086 77.63757813 58.03169922 78.45484375 57.57714844 79.296875 C56.15931868 81.91532658 54.72554936 84.52455593 53.2890625 87.1328125 C52.32264679 88.89959199 51.35649999 90.6665186 50.390625 92.43359375 C48.52319963 95.84426963 46.64440204 99.24832999 44.7578125 102.6484375 C42.79241969 106.19739229 40.90884662 109.78248351 39.0390625 113.3828125 C34.78399616 121.12703324 29.82359595 127.17082736 21.2890625 130.1328125 C17.32035124 131.09561236 13.60533724 131.2643844 9.52659607 131.27757263 C8.85952717 131.28109948 8.19245828 131.28462632 7.50517517 131.28826004 C5.27745014 131.29890609 3.04976794 131.30262079 0.82202148 131.30639648 C-0.77811868 131.31270473 -2.3782571 131.31947083 -3.97839355 131.32666016 C-7.42034604 131.34130838 -10.86229185 131.35304169 -14.30426216 131.36260796 C-19.74559322 131.37807501 -25.1868664 131.4020224 -30.62815857 131.42750549 C-46.09964341 131.49867497 -61.57116075 131.5585548 -77.04272461 131.60961914 C-85.59037735 131.63790571 -94.13797183 131.67327326 -102.6855635 131.71627289 C-108.09608401 131.74306274 -113.50653866 131.7609567 -118.91711247 131.77231014 C-122.28029684 131.78142641 -125.64340096 131.79878292 -129.00653839 131.81848907 C-130.56741769 131.82597107 -132.12831754 131.83004603 -133.68921471 131.83048439 C-135.81812107 131.8315652 -137.94661818 131.8447969 -140.07545471 131.86106873 C-141.2672915 131.86530066 -142.45912828 131.8695326 -143.68708134 131.87389278 C-146.66261933 132.12867522 -148.30336917 132.39709304 -150.7109375 134.1328125 C-151.3709375 135.4528125 -152.0309375 136.7728125 -152.7109375 138.1328125 C-143.4709375 138.4628125 -134.2309375 138.7928125 -124.7109375 139.1328125 C-124.7109375 139.7928125 -124.7109375 140.4528125 -124.7109375 141.1328125 C-125.95617187 141.66455078 -125.95617187 141.66455078 -127.2265625 142.20703125 C-137.30369915 146.54734461 -147.25208841 151.1486422 -157.19482422 155.78735352 C-168.38432744 161.00256639 -179.6220578 166.1094269 -190.87084961 171.1953125 C-191.5491835 171.50250214 -192.2275174 171.80969177 -192.92640686 172.12619019 C-194.7654473 172.95894219 -196.60511314 173.79031266 -198.44482422 174.62158203 C-200.64713457 175.64059093 -202.81681308 176.73284962 -204.94970703 177.89013672 C-207.7109375 179.1328125 -207.7109375 179.1328125 -210.7109375 178.1328125 C-212.26977539 176.38964844 -212.26977539 176.38964844 -213.93359375 174.1171875 C-214.55024902 173.28372803 -215.1669043 172.45026855 -215.80224609 171.59155273 C-216.45273926 170.69766846 -217.10323242 169.80378418 -217.7734375 168.8828125 C-219.12031695 167.05541679 -220.46797517 165.22859482 -221.81640625 163.40234375 C-222.80713135 162.0558374 -222.80713135 162.0558374 -223.81787109 160.68212891 C-227.11281513 156.24496027 -230.53257654 151.90700322 -233.953125 147.56640625 C-235.7109375 145.1328125 -235.7109375 145.1328125 -236.7109375 142.1328125 C-237.3709375 142.1328125 -238.0309375 142.1328125 -238.7109375 142.1328125 C-238.7109375 141.1428125 -238.7109375 140.1528125 -238.7109375 139.1328125 C-237.84927979 139.14965088 -236.98762207 139.16648926 -236.09985352 139.18383789 C-232.86153888 139.22537984 -229.62636289 139.22594899 -226.38793945 139.19995117 C-224.99432729 139.19689395 -223.60057929 139.20954405 -222.20727539 139.23901367 C-213.60868551 139.48089997 -213.60868551 139.48089997 -205.87060547 136.17895508 C-203.63812232 133.93205848 -201.68660252 131.60432339 -199.7109375 129.1328125 C-198.40490819 127.95595259 -197.07527594 126.8040471 -195.7109375 125.6953125 C-192.60736838 123.04126828 -189.91011294 120.19711612 -187.2109375 117.1328125 C-174.68373848 102.99128371 -174.68373848 102.99128371 -165.57958984 101.8704071 C-163.21274536 101.78793523 -160.86393166 101.79496544 -158.49609375 101.83984375 C-157.21248207 101.84621101 -157.21248207 101.84621101 -155.90293884 101.85270691 C-153.1927733 101.86938461 -150.48337502 101.90701545 -147.7734375 101.9453125 C-145.9264431 101.96037348 -144.07943694 101.9740594 -142.23242188 101.98632812 C-137.72496866 102.01925224 -133.21808278 102.07095781 -128.7109375 102.1328125 C-128.76854248 100.81676025 -128.82614746 99.50070801 -128.88549805 98.14477539 C-129.08559232 93.23107186 -129.21122055 88.31772207 -129.31518555 83.40112305 C-129.37028443 81.27941215 -129.4451928 79.15811483 -129.54077148 77.0378418 C-130.35907638 58.40937155 -130.35907638 58.40937155 -126.37817383 53.84570312 C-123.59349671 51.58794499 -120.82234807 49.89635531 -117.7109375 48.1328125 C-116.10188012 46.63980322 -114.53138921 45.10287488 -113.0234375 43.5078125 C-109.7107534 40.10671157 -106.27810389 36.96763041 -102.67578125 33.87890625 C-100.60273426 32.03665575 -98.65657948 30.10879588 -96.7109375 28.1328125 C-89.89611951 21.23844411 -82.46401532 14.95139917 -74.7109375 9.1328125 C-74.3809375 9.1328125 -74.0509375 9.1328125 -73.7109375 9.1328125 C-73.58496795 40.1503929 -73.80847345 71.12741196 -74.7109375 102.1328125 C-66.33964642 102.20243556 -57.96847707 102.25568594 -49.5969677 102.28824902 C-45.70939759 102.30388057 -41.82202612 102.32507254 -37.93457031 102.35913086 C-34.18037091 102.39181451 -30.42636214 102.40968439 -26.6720314 102.41744423 C-25.24234137 102.42297165 -23.81266134 102.4337654 -22.38305283 102.45000267 C-20.37510166 102.47189409 -18.36695719 102.4730389 -16.35888672 102.47338867 C-15.21749237 102.48005051 -14.07609802 102.48671234 -12.90011597 102.49357605 C-8.46705826 101.99210344 -5.0290353 100.56747678 -1.98828125 97.2578125 C0.65739524 93.06175417 2.94869906 88.85288442 4.97265625 84.3203125 C5.4102124 83.34449219 5.84776855 82.36867188 6.29858398 81.36328125 C6.62544189 80.62722656 6.9522998 79.89117187 7.2890625 79.1328125 C6.02785332 79.12401314 6.02785332 79.12401314 4.74116516 79.11503601 C-3.18946592 79.05709004 -11.11981593 78.98500244 -19.05017376 78.89709759 C-23.12709762 78.85240351 -27.20392177 78.81314543 -31.28100586 78.78637695 C-35.21693609 78.76033411 -39.15248245 78.71992521 -43.08817482 78.66962624 C-44.5883894 78.65296407 -46.08867036 78.64144572 -47.58896446 78.63519859 C-49.69342496 78.62555001 -51.79690488 78.59748424 -53.90112305 78.56518555 C-55.09803268 78.55408249 -56.29494232 78.54297943 -57.52812195 78.53153992 C-61.01999331 78.09409551 -62.91250138 77.23189207 -65.7109375 75.1328125 C-67.81374621 71.42786383 -67.96096827 68.33606764 -67.7109375 64.1328125 C-66.75219727 61.59423828 -66.75219727 61.59423828 -65.40234375 59.078125 C-64.90694092 58.14145996 -64.41153809 57.20479492 -63.90112305 56.23974609 C-63.36398682 55.25570801 -62.82685059 54.27166992 -62.2734375 53.2578125 C-61.72792236 52.2363916 -61.18240723 51.2149707 -60.62036133 50.16259766 C-56.75867378 42.96399135 -52.7940616 35.82357281 -48.7421875 28.73046875 C-46.15205576 24.18173455 -43.73089298 19.54650465 -41.31640625 14.90234375 C-37.68900948 8.64486367 -33.57164118 4.72745098 -26.8359375 1.9453125 C-18.01853971 -0.34721093 -9.04002026 -0.01341366 0 0 Z " fill="#104FA0" transform="translate(460.7109375,89.8671875)"/>
<path d="M0 0 C7.26 0 14.52 0 22 0 C23.9320966 6.76233809 24.9984858 13.0609373 26 20 C29.63 13.4 33.26 6.8 37 0 C38.98 0 40.96 0 43 0 C41.72287446 4.10693899 40.18709006 7.81593585 38.1796875 11.6171875 C37.64472656 12.63554687 37.10976563 13.65390625 36.55859375 14.703125 C36.00300781 15.74984375 35.44742188 16.7965625 34.875 17.875 C34.31167969 18.94492187 33.74835938 20.01484375 33.16796875 21.1171875 C31.78265261 23.74694017 30.39322404 26.37443083 29 29 C26.36 29 23.72 29 21 29 C19.56750324 22.86072815 18.42767893 16.73448431 17.46484375 10.50390625 C17.1217946 8.01322082 17.1217946 8.01322082 16 6 C12.37 6 8.74 6 5 6 C5 7.65 5 9.3 5 11 C7.97 11.33 10.94 11.66 14 12 C14 13.65 14 15.3 14 17 C10.37 17 6.74 17 3 17 C2.67 19.31 2.34 21.62 2 24 C5.3 24 8.6 24 12 24 C11.67 25.65 11.34 27.3 11 29 C5.72 29 0.44 29 -5 29 C-4.35966379 22.37420537 -3.28973945 15.9521413 -1.9375 9.4375 C-1.298125 6.323125 -0.65875 3.20875 0 0 Z " fill="#3C3A3B" transform="translate(377,295)"/>
<path d="M0 0 C1.98 0 3.96 0 6 0 C6.33 5.94 6.66 11.88 7 18 C7.84884766 16.17662109 7.84884766 16.17662109 8.71484375 14.31640625 C9.45561536 12.73171763 10.19650697 11.1470851 10.9375 9.5625 C11.31068359 8.76005859 11.68386719 7.95761719 12.06835938 7.13085938 C12.42607422 6.36708984 12.78378906 5.60332031 13.15234375 4.81640625 C13.48226318 4.10943604 13.81218262 3.40246582 14.15209961 2.67407227 C15 1 15 1 16 0 C19 -0.125 19 -0.125 22 0 C24.09939785 2.09939785 23.41925196 6.64318528 23.5625 9.5625 C23.706875 12.346875 23.85125 15.13125 24 18 C26.64 12.06 29.28 6.12 32 0 C33.98 0 35.96 0 38 0 C37.3825314 3.85307384 36.22449823 6.975197 34.53125 10.484375 C34.04269531 11.50144531 33.55414063 12.51851563 33.05078125 13.56640625 C32.53902344 14.61699219 32.02726562 15.66757812 31.5 16.75 C30.73236328 18.34908203 30.73236328 18.34908203 29.94921875 19.98046875 C26.14959206 27.85040794 26.14959206 27.85040794 25 29 C22.69 29 20.38 29 18 29 C17.505 19.595 17.505 19.595 17 10 C16.43410156 11.28777344 15.86820313 12.57554687 15.28515625 13.90234375 C14.5443926 15.58078291 13.80350055 17.25916541 13.0625 18.9375 C12.68931641 19.78763672 12.31613281 20.63777344 11.93164062 21.51367188 C11.57392578 22.32255859 11.21621094 23.13144531 10.84765625 23.96484375 C10.51773682 24.7137085 10.18781738 25.46257324 9.84790039 26.23413086 C9 28 9 28 8 29 C5.66702567 29.04092937 3.33294775 29.04241723 1 29 C-0.07917226 25.76248322 -0.11425601 23.42248229 -0.09765625 20.01953125 C-0.09443359 18.85615234 -0.09121094 17.69277344 -0.08789062 16.49414062 C-0.07951172 15.27919922 -0.07113281 14.06425781 -0.0625 12.8125 C-0.05798828 11.58595703 -0.05347656 10.35941406 -0.04882812 9.09570312 C-0.03703065 6.06375332 -0.02056921 3.03190094 0 0 Z " fill="#383637" transform="translate(45,295)"/>
<path d="M0 0 C2.31 0 4.62 0 7 0 C8.98 5.94 10.96 11.88 13 18 C13.45375 16.14375 13.9075 14.2875 14.375 12.375 C15.42097228 8.18119645 16.53048615 4.06942297 18 0 C19.65 0 21.3 0 23 0 C22.56279178 9.9246265 20.27718577 19.3722704 18 29 C15.36 29 12.72 29 10 29 C8.02 23.06 6.04 17.12 4 11 C2.68 16.94 1.36 22.88 0 29 C-1.98 29 -3.96 29 -6 29 C-5.37636227 22.55574349 -4.36209842 16.32684844 -3 10 C-2.82210938 9.14277344 -2.64421875 8.28554688 -2.4609375 7.40234375 C-1.12864688 1.12864688 -1.12864688 1.12864688 0 0 Z " fill="#383537" transform="translate(350,295)"/>
<path d="M0 0 C2.64 0 5.28 0 8 0 C9.98 6.27 11.96 12.54 14 19 C15.27542561 13.12209227 15.27542561 13.12209227 16.54272461 7.24243164 C16.70264893 6.51403076 16.86257324 5.78562988 17.02734375 5.03515625 C17.18968506 4.2862915 17.35202637 3.53742676 17.51928711 2.76586914 C18 1 18 1 19 0 C20.66617115 -0.04063832 22.33388095 -0.042721 24 0 C23.35299955 9.86675685 21.12620288 19.3678065 19 29 C16.36 29 13.72 29 11 29 C8.69557475 23.07433507 6.76463072 17.10737442 5 11 C4.80664062 11.88042969 4.61328125 12.76085937 4.4140625 13.66796875 C4.15367187 14.82941406 3.89328125 15.99085938 3.625 17.1875 C3.36976563 18.33605469 3.11453125 19.48460937 2.8515625 20.66796875 C2.10527548 23.58807348 1.19568212 26.23953389 0 29 C-1.65 29 -3.3 29 -5 29 C-4.35299955 19.13324315 -2.12620288 9.6321935 0 0 Z " fill="#373536" transform="translate(498,295)"/>
<path d="M0 0 C14.16234888 -0.84974093 14.16234888 -0.84974093 20 4 C23.00057147 8.56007901 22.6093234 13.75220218 22 19 C19.66601434 23.93727735 16.75801839 26.40818953 12 29 C9.01796375 29.45896332 6.13279042 29.3825467 3.125 29.25 C1.949375 29.22292969 1.949375 29.22292969 0.75 29.1953125 C-1.16720189 29.14855148 -3.08376715 29.07682003 -5 29 C-4.35963063 22.37386221 -3.29028836 15.95287291 -1.9375 9.4375 C-1.75123047 8.52419922 -1.56496094 7.61089844 -1.37304688 6.66992188 C-0.91891897 4.44585955 -0.461187 2.22260724 0 0 Z M6 5 C4.45136655 9.281516 3.51847636 13.37066549 2.875 17.875 C2.70742188 19.02742188 2.53984375 20.17984375 2.3671875 21.3671875 C2.24601563 22.23601562 2.12484375 23.10484375 2 24 C7.88389422 24.395523 7.88389422 24.395523 13 22 C15.33476018 18.61862318 16.28220935 15.87748466 16.125 11.8125 C15.38504092 7.69743788 15.38504092 7.69743788 11.5625 6 C8.29576887 4.90991454 8.29576887 4.90991454 6 5 Z " fill="#363335" transform="translate(526,295)"/>
<path d="M0 0 C12.92705221 -0.56477413 12.92705221 -0.56477413 18 3 C19.60933127 6.21866254 19.6079381 9.51938738 19 13 C16.55701712 16.03722197 14.2336335 17.84424433 11 20 C12.65 22.97 14.3 25.94 16 29 C13.69 29 11.38 29 9 29 C7.35 26.03 5.7 23.06 4 20 C2.68 23.3 1.36 26.6 0 30 C-1.65 30 -3.3 30 -5 30 C-4.43617776 23.00634512 -3.37639601 16.23899157 -1.9375 9.375 C-1.75123047 8.46621094 -1.56496094 7.55742187 -1.37304688 6.62109375 C-0.91982704 4.4130997 -0.46210307 2.20614876 0 0 Z M5 6 C4.67 8.64 4.34 11.28 4 14 C9.01535052 13.67039784 9.01535052 13.67039784 13 11 C12.59471099 8.21762345 12.59471099 8.21762345 11 6 C9.00041636 5.95919217 6.99954746 5.95745644 5 6 Z " fill="#393638" transform="translate(130,295)"/>
<path d="M0 0 C11.84470327 -0.56905158 11.84470327 -0.56905158 17 3 C19.36086122 6.54129184 19.57269578 7.82750218 19 12 C16.93630804 15.42890356 14.87677918 17.70774027 11 19 C11.28875 19.721875 11.5775 20.44375 11.875 21.1875 C13.4375 25.09375 13.4375 25.09375 15 29 C12.375 29.625 12.375 29.625 9 29 C6.57495765 25.88676995 4.77168347 22.51823667 3 19 C2.34 22.3 1.68 25.6 1 29 C-1.31 29 -3.62 29 -6 29 C-5.19242459 24.54075989 -4.37811136 20.08277672 -3.5625 15.625 C-3.33240234 14.35398437 -3.10230469 13.08296875 -2.86523438 11.7734375 C-2.64287109 10.56171875 -2.42050781 9.35 -2.19140625 8.1015625 C-1.98717041 6.98088379 -1.78293457 5.86020508 -1.57250977 4.70556641 C-1 2 -1 2 0 0 Z M5 6 C4.34 8.64 3.68 11.28 3 14 C7.7897321 14.23428313 7.7897321 14.23428313 12 12 C12.33343551 9.45792029 12.33343551 9.45792029 12 7 C10.87465895 5.64381501 10.87465895 5.64381501 7.9375 5.9375 C6.968125 5.958125 5.99875 5.97875 5 6 Z " fill="#383536" transform="translate(442,295)"/>
<path d="M0 0 C4.66408021 0.06662972 8.04058845 0.2518139 11.8125 3.25 C13.69841089 7.24813108 14.11838798 9.25586405 12.8125 13.5 C10.48471206 16.70070842 8.45038172 17.79484731 4.8125 19.25 C6.4625 22.55 8.1125 25.85 9.8125 29.25 C7.5025 29.25 5.1925 29.25 2.8125 29.25 C1.1625 26.28 -0.4875 23.31 -2.1875 20.25 C-3.1775 23.22 -4.1675 26.19 -5.1875 29.25 C-7.1675 29.25 -9.1475 29.25 -11.1875 29.25 C-7.01111032 0.11354025 -7.01111032 0.11354025 0 0 Z M-1.1875 6.25 C-1.5175 8.89 -1.8475 11.53 -2.1875 14.25 C-0.888125 14.105625 0.41125 13.96125 1.75 13.8125 C2.48089844 13.73128906 3.21179688 13.65007812 3.96484375 13.56640625 C5.82390229 13.43113386 5.82390229 13.43113386 6.8125 12.25 C6.97916667 9.75 6.97916667 9.75 6.8125 7.25 C5.62825674 5.83422523 5.62825674 5.83422523 2.25 6.1875 C0.5484375 6.2184375 0.5484375 6.2184375 -1.1875 6.25 Z " fill="#363335" transform="translate(234.1875,294.75)"/>
<path d="M0 0 C3.85544798 1.99657127 5.59805092 3.39707638 8 7 C8 7.99 8 8.98 8 10 C4.6875 10.1875 4.6875 10.1875 1 10 C0 9 -1 8 -2 7 C-6.33453498 6.35784667 -8.28670848 6.51435471 -11.9375 9 C-14.76733593 13.11612499 -14.63512789 15.07775886 -14 20 C-13.10242444 22.14780077 -13.10242444 22.14780077 -11 23 C-6.18121331 23.5761398 -6.18121331 23.5761398 -2 21.5 C0.9280281 19.30397893 3.45050599 19.7952215 7 20 C6.12724774 23.81829114 4.56320189 25.63755833 1.4375 27.8125 C-3.02398603 30.37117439 -6.95056247 31.01923832 -12 30 C-15.87726314 27.98956726 -18.89824862 25.87164729 -21 22 C-22.54925094 16.24563937 -21.80728096 12.1197921 -19 7 C-13.45898006 0.46443802 -8.38378963 -1.09756237 0 0 Z " fill="#373536" transform="translate(304,295)"/>
<path d="M0 0 C1.98 0 3.96 0 6 0 C5.85831863 1.43791516 5.71148957 2.8753237 5.5625 4.3125 C5.48128906 5.11300781 5.40007812 5.91351563 5.31640625 6.73828125 C5 9 5 9 4 12 C6.64 11.67 9.28 11.34 12 11 C12.13277344 10.28972656 12.26554687 9.57945312 12.40234375 8.84765625 C12.57894531 7.92855469 12.75554687 7.00945312 12.9375 6.0625 C13.19853516 4.68771484 13.19853516 4.68771484 13.46484375 3.28515625 C14 1 14 1 15 0 C16.99958364 -0.04080783 19.00045254 -0.04254356 21 0 C17.1515748 26.8484252 17.1515748 26.8484252 15 29 C13.02 29 11.04 29 9 29 C9.66 25.04 10.32 21.08 11 17 C8.36 17 5.72 17 3 17 C2.34 20.96 1.68 24.92 1 29 C-0.98 29 -2.96 29 -5 29 C-4.35299955 19.13324315 -2.12620288 9.6321935 0 0 Z " fill="#363435" transform="translate(85,295)"/>
<path d="M0 0 C5.28 0 10.56 0 16 0 C16 1.65 16 3.3 16 5 C15 6 15 6 12.71484375 6.09765625 C11.34005859 6.08025391 11.34005859 6.08025391 9.9375 6.0625 C9.01839844 6.05347656 8.09929687 6.04445313 7.15234375 6.03515625 C6.44207031 6.02355469 5.73179687 6.01195312 5 6 C4.67 7.98 4.34 9.96 4 12 C7.3 12 10.6 12 14 12 C13.67 13.65 13.34 15.3 13 17 C9.7 17 6.4 17 3 17 C2.67 19.31 2.34 21.62 2 24 C5.3 24 8.6 24 12 24 C11.67 25.65 11.34 27.3 11 29 C8.91814549 29.22262606 6.83439574 29.42757926 4.75 29.625 C3.58984375 29.74101562 2.4296875 29.85703125 1.234375 29.9765625 C-2.0394627 30.00028596 -3.23446795 29.54049599 -6 28 C-5.19230332 23.70741475 -4.37803415 19.41610255 -3.5625 15.125 C-3.33240234 13.90167969 -3.10230469 12.67835938 -2.86523438 11.41796875 C-2.64287109 10.25136719 -2.42050781 9.08476562 -2.19140625 7.8828125 C-1.98717041 6.80402832 -1.78293457 5.72524414 -1.57250977 4.61376953 C-1 2 -1 2 0 0 Z " fill="#3A3839" transform="translate(478,295)"/>
<path d="M0 0 C1.48831242 0.00667405 2.97660807 0.01863442 4.46484375 0.03515625 C5.22345703 0.03966797 5.98207031 0.04417969 6.76367188 0.04882812 C8.64326246 0.06064945 10.52281274 0.07858547 12.40234375 0.09765625 C12.07234375 2.07765625 11.74234375 4.05765625 11.40234375 6.09765625 C8.10234375 6.42765625 4.80234375 6.75765625 1.40234375 7.09765625 C1.07234375 8.74765625 0.74234375 10.39765625 0.40234375 12.09765625 C3.70234375 12.09765625 7.00234375 12.09765625 10.40234375 12.09765625 C10.07234375 13.74765625 9.74234375 15.39765625 9.40234375 17.09765625 C4.45234375 17.59265625 4.45234375 17.59265625 -0.59765625 18.09765625 C-1.25765625 20.07765625 -1.91765625 22.05765625 -2.59765625 24.09765625 C0.70234375 24.09765625 4.00234375 24.09765625 7.40234375 24.09765625 C7.40234375 25.74765625 7.40234375 27.39765625 7.40234375 29.09765625 C1.79234375 29.09765625 -3.81765625 29.09765625 -9.59765625 29.09765625 C-5.36872332 0.14573082 -5.36872332 0.14573082 0 0 Z " fill="#383536" transform="translate(425.59765625,294.90234375)"/>
<path d="M0 0 C2.09765625 0.4921875 2.09765625 0.4921875 4.72265625 2.7421875 C6.09765625 5.4921875 6.09765625 5.4921875 5.84765625 7.8046875 C5.60015625 8.3615625 5.35265625 8.9184375 5.09765625 9.4921875 C3.44765625 9.4921875 1.79765625 9.4921875 0.09765625 9.4921875 C-0.23234375 8.1721875 -0.56234375 6.8521875 -0.90234375 5.4921875 C-2.22234375 5.4921875 -3.54234375 5.4921875 -4.90234375 5.4921875 C-4.94107062 7.82757657 -4.94107062 7.82757657 -3.90234375 10.4921875 C-2.1879559 11.97490132 -0.41361656 13.17259579 1.50390625 14.37890625 C3.09765625 15.4921875 3.09765625 15.4921875 4.09765625 17.4921875 C4.68159786 24.73306341 4.68159786 24.73306341 2.22265625 27.9296875 C-1.60617636 30.7450056 -4.15263918 30.73786187 -8.90234375 30.4921875 C-11.61867566 29.61121499 -12.5711394 28.98899403 -14.15234375 26.6171875 C-14.90234375 24.4921875 -14.90234375 24.4921875 -14.90234375 20.4921875 C-12.92234375 20.4921875 -10.94234375 20.4921875 -8.90234375 20.4921875 C-8.57234375 21.4821875 -8.24234375 22.4721875 -7.90234375 23.4921875 C-6.25234375 23.4921875 -4.60234375 23.4921875 -2.90234375 23.4921875 C-2.86361688 21.15679843 -2.86361688 21.15679843 -3.90234375 18.4921875 C-5.6167316 17.00947368 -7.39107094 15.81177921 -9.30859375 14.60546875 C-10.90234375 13.4921875 -10.90234375 13.4921875 -11.90234375 11.4921875 C-12.42691598 7.55789578 -12.20925078 5.94759793 -9.96484375 2.6171875 C-6.37292413 0.12483511 -4.28754082 -0.24336626 0 0 Z " fill="#373436" transform="translate(196.90234375,294.5078125)"/>
<path d="M0 0 C1.98 0 3.96 0 6 0 C6.20496094 1.28777344 6.40992188 2.57554687 6.62109375 3.90234375 C6.89301652 5.58076363 7.16516351 7.2591472 7.4375 8.9375 C7.57220703 9.78763672 7.70691406 10.63777344 7.84570312 11.51367188 C7.97783203 12.32255859 8.10996094 13.13144531 8.24609375 13.96484375 C8.42676392 15.08814087 8.42676392 15.08814087 8.61108398 16.23413086 C8.83759904 18.0170885 8.83759904 18.0170885 10 19 C13.3 12.73 16.6 6.46 20 0 C21.98 0 23.96 0 26 0 C25.39611873 4.09007153 24.04782172 7.12677027 22.05859375 10.73828125 C21.47529297 11.80498047 20.89199219 12.87167969 20.29101562 13.97070312 C19.67935547 15.07349609 19.06769531 16.17628906 18.4375 17.3125 C17.82197266 18.43462891 17.20644531 19.55675781 16.57226562 20.71289062 C15.05407906 23.47857933 13.52982295 26.24073609 12 29 C9.36 29 6.72 29 4 29 C3.32295589 25.48108123 2.66025513 21.95960423 2 18.4375 C1.80921875 17.44685547 1.6184375 16.45621094 1.421875 15.43554688 C0.44768403 10.19927041 -0.23904737 5.32627422 0 0 Z " fill="#393637" transform="translate(249,295)"/>
<path d="M0 0 C1.48831242 0.00667405 2.97660807 0.01863442 4.46484375 0.03515625 C5.22345703 0.03966797 5.98207031 0.04417969 6.76367188 0.04882812 C8.64326246 0.06064945 10.52281274 0.07858547 12.40234375 0.09765625 C12.07234375 2.07765625 11.74234375 4.05765625 11.40234375 6.09765625 C8.10234375 6.09765625 4.80234375 6.09765625 1.40234375 6.09765625 C1.07234375 8.07765625 0.74234375 10.05765625 0.40234375 12.09765625 C3.70234375 12.09765625 7.00234375 12.09765625 10.40234375 12.09765625 C10.07234375 13.74765625 9.74234375 15.39765625 9.40234375 17.09765625 C4.45234375 17.59265625 4.45234375 17.59265625 -0.59765625 18.09765625 C-0.92765625 19.74765625 -1.25765625 21.39765625 -1.59765625 23.09765625 C1.37234375 23.42765625 4.34234375 23.75765625 7.40234375 24.09765625 C7.40234375 25.74765625 7.40234375 27.39765625 7.40234375 29.09765625 C1.79234375 29.09765625 -3.81765625 29.09765625 -9.59765625 29.09765625 C-8.90755296 25.12765247 -8.21508518 21.1581808 -7.51635742 17.18969727 C-7.27924818 15.83871086 -7.04356649 14.48747311 -6.80932617 13.13598633 C-6.4729691 11.19677757 -6.13110041 9.25852733 -5.7890625 7.3203125 C-5.58482666 6.15250244 -5.38059082 4.98469238 -5.17016602 3.78149414 C-4.30996908 -0.25097701 -4.33051806 0.11754935 0 0 Z " fill="#383536" transform="translate(158.59765625,294.90234375)"/>
<path d="M0 0 C5.28 0 10.56 0 16 0 C16 1.65 16 3.3 16 5 C15 6 15 6 12.71484375 6.09765625 C11.34005859 6.08025391 11.34005859 6.08025391 9.9375 6.0625 C9.01839844 6.05347656 8.09929687 6.04445313 7.15234375 6.03515625 C6.44207031 6.02355469 5.73179688 6.01195312 5 6 C4.67 7.98 4.34 9.96 4 12 C7.3 12 10.6 12 14 12 C13.67 13.65 13.34 15.3 13 17 C9.7 17 6.4 17 3 17 C2.67 19.31 2.34 21.62 2 24 C5.3 24 8.6 24 12 24 C11.67 25.65 11.34 27.3 11 29 C5.72 29 0.44 29 -5 29 C-4.43164468 19.05378191 -2.28561352 9.66336134 0 0 Z " fill="#383536" transform="translate(110,295)"/>
<path d="M0 0 C5.28 0 10.56 0 16 0 C16 1.98 16 3.96 16 6 C12.37 6 8.74 6 5 6 C4.67 7.98 4.34 9.96 4 12 C7.3 12 10.6 12 14 12 C13.67 13.65 13.34 15.3 13 17 C9.7 17 6.4 17 3 17 C2.67 19.31 2.34 21.62 2 24 C5.3 24 8.6 24 12 24 C11.67 25.65 11.34 27.3 11 29 C5.72 29 0.44 29 -5 29 C-4.35299955 19.13324315 -2.12620288 9.6321935 0 0 Z " fill="#373536" transform="translate(208,295)"/>
<path d="M0 0 C1.48831242 0.00667405 2.97660807 0.01863442 4.46484375 0.03515625 C5.22345703 0.03966797 5.98207031 0.04417969 6.76367188 0.04882812 C8.64326246 0.06064945 10.52281274 0.07858547 12.40234375 0.09765625 C12.07234375 2.07765625 11.74234375 4.05765625 11.40234375 6.09765625 C7.77234375 6.09765625 4.14234375 6.09765625 0.40234375 6.09765625 C0.40234375 7.74765625 0.40234375 9.39765625 0.40234375 11.09765625 C3.37234375 11.42765625 6.34234375 11.75765625 9.40234375 12.09765625 C9.40234375 13.74765625 9.40234375 15.39765625 9.40234375 17.09765625 C5.77234375 17.09765625 2.14234375 17.09765625 -1.59765625 17.09765625 C-1.92765625 19.40765625 -2.25765625 21.71765625 -2.59765625 24.09765625 C0.70234375 24.09765625 4.00234375 24.09765625 7.40234375 24.09765625 C7.07234375 25.74765625 6.74234375 27.39765625 6.40234375 29.09765625 C1.12234375 29.09765625 -4.15765625 29.09765625 -9.59765625 29.09765625 C-8.97401852 22.65339974 -7.95975467 16.42450469 -6.59765625 10.09765625 C-6.41976563 9.24042969 -6.241875 8.38320313 -6.05859375 7.5 C-4.49177626 0.12192661 -4.49177626 0.12192661 0 0 Z " fill="#373435" transform="translate(321.59765625,294.90234375)"/>
<path d="M0 0 C4.40142373 0.00638761 8.80284868 0.00684919 13.20427632 0.00802541 C21.48350364 0.01109445 29.76271724 0.01924603 38.0419386 0.0293749 C47.49108524 0.04067624 56.94023264 0.04608127 66.38938439 0.05107033 C85.77564165 0.06143408 105.16188628 0.07894466 124.54813313 0.10139394 C124.54813313 1.42139394 124.54813313 2.74139394 124.54813313 4.10139394 C124.21813313 3.44139394 123.88813313 2.78139394 123.54813313 2.10139394 C60.84813313 2.10139394 -1.85186687 2.10139394 -66.45186687 2.10139394 C-66.45186687 1.77139394 -66.45186687 1.44139394 -66.45186687 1.10139394 C-44.29413533 0.20957569 -22.17378089 -0.03781062 0 0 Z " fill="#DFDEDE" transform="translate(456.4518668651581,81.89860606193542)"/>
<path d="M0 0 C2.62697064 -0.22137393 5.00893964 -0.28162025 7.625 -0.1875 C8.33140625 -0.17396484 9.0378125 -0.16042969 9.765625 -0.14648438 C11.51074128 -0.1111104 13.25546608 -0.05730221 15 0 C15 1.65 15 3.3 15 5 C11.37 5 7.74 5 4 5 C4 6.65 4 8.3 4 10 C6.97 10.33 9.94 10.66 13 11 C13 12.65 13 14.3 13 16 C9.37 16 5.74 16 2 16 C1.67 18.31 1.34 20.62 1 23 C4.3 23 7.6 23 11 23 C10.67 24.65 10.34 26.3 10 28 C4.72 28 -0.56 28 -6 28 C-5.47755498 22.14861576 -4.60765045 16.40230514 -3.5625 10.625 C-3.37917114 9.5721582 -3.37917114 9.5721582 -3.19213867 8.49804688 C-2.55692401 5.08051769 -1.9559191 2.93387865 0 0 Z " fill="#322F30" transform="translate(378,296)"/>
<path d="M0 0 C1.98 0 3.96 0 6 0 C2.1515748 26.8484252 2.1515748 26.8484252 0 29 C-1.99958364 29.04080783 -4.00045254 29.04254356 -6 29 C-5.19242459 24.54075989 -4.37811136 20.08277672 -3.5625 15.625 C-3.33240234 14.35398437 -3.10230469 13.08296875 -2.86523438 11.7734375 C-2.64287109 10.56171875 -2.42050781 9.35 -2.19140625 8.1015625 C-1.98717041 6.98088379 -1.78293457 5.86020508 -1.57250977 4.70556641 C-1 2 -1 2 0 0 Z " fill="#383637" transform="translate(277,295)"/>
<path d="M0 0 C1.65 0.33 3.3 0.66 5 1 C4.67 2.65 4.34 4.3 4 6 C2.125 6.625 2.125 6.625 0 7 C-0.66 6.34 -1.32 5.68 -2 5 C-1.34 3.35 -0.68 1.7 0 0 Z " fill="#4C4B4C" transform="translate(552,318)"/>
<path d="M0 0 C0.66 0.33 1.32 0.66 2 1 C-0.31 3.31 -2.62 5.62 -5 8 C-5 5 -5 5 -2.5 2.3125 C-1.675 1.549375 -0.85 0.78625 0 0 Z " fill="#535253" transform="translate(290,297)"/>
</svg>
